<?xml version="1.0" encoding="utf-8"?>
<!-- Generator: Adobe Illustrator 25.1.0, SVG Export Plug-In . SVG Version: 6.00 Build 0)  -->
<svg version="1.1" id="Calque_1" xmlns="http://www.w3.org/2000/svg" xmlns:xlink="http://www.w3.org/1999/xlink" x="0px" y="0px"
	 viewBox="0 0 84 84" style="enable-background:new 0 0 84 84;" xml:space="preserve">
<style type="text/css">
	.st0{fill:#D30E0E;stroke:#000000;stroke-width:0.25;stroke-miterlimit:10;}
</style>
<path class="st0" d="M30,44.8h24.2l3.6-1.8c-0.3-0.3-0.5-0.5-0.8-0.6l-8.1-4c-0.4-0.1-0.8-0.3-1.2-0.3H36.3c-0.4,0-0.8,0.1-1.2,0.3
	l-8.1,4c-0.3,0.1-0.5,0.4-0.8,0.6L30,44.8z"/>
<path class="st0" d="M81.8,42.3l-0.5-0.3v-2.4v-0.9v-4.9v-7.1c0-1.9-1-3.7-2.8-4.6l-19.6-9.8c-0.8-0.4-1.5-0.5-2.3-0.5H27.4
	c-0.8,0-1.5,0.1-2.3,0.5L5.5,22.1c-1.8,0.9-2.8,2.7-2.8,4.6v7.1v4.9v0.9v2.4l-0.5,0.3c-0.9,0.4-1.4,1.3-1.4,2.3v13.9
	c0,1,0.5,1.9,1.4,2.3L24.3,72c0.4,0.1,0.8,0.3,1.2,0.3h33c0.4,0,0.8-0.1,1.2-0.3l22.2-11.1c0.9-0.4,1.4-1.3,1.4-2.3V44.6
	C83.2,43.6,82.7,42.7,81.8,42.3z M76.1,26.6v7.1v3.2l-16.4-8.2V18.4L76.1,26.6z M7.9,48.8v-4.3l16.4,8.2v10.3L7.9,54.8V48.8z
	 M27.4,32.9h29.3l15.5,7.7l-15.5,7.7H27.4L12,40.6L27.4,32.9z M54.6,64.5H29.4v-11h25.3C54.6,53.5,54.6,64.5,54.6,64.5z M76.1,54.8
	l-16.4,8.2V52.8l16.4-8.2v4.3V54.8z M54.6,16.8v11H29.4v-11H54.6z M7.9,33.8v-7.1l16.4-8.2v10.3L7.9,37C7.9,37,7.9,33.8,7.9,33.8z"
	/>
</svg>
